<?xml version="1.0" encoding="UTF-8" standalone="no"?><!-- Generator: Gravit.io --><svg xmlns="http://www.w3.org/2000/svg" xmlns:xlink="http://www.w3.org/1999/xlink" style="isolation:isolate" viewBox="0 0 450 330" width="450pt" height="330pt"><defs><clipPath id="_clipPath_l9X1mNSHll50QRGYHVflqWp11iweUbxO"><rect width="450" height="330"/></clipPath></defs><g clip-path="url(#_clipPath_l9X1mNSHll50QRGYHVflqWp11iweUbxO)"><path d=" M 367.886 119.367 C 367.886 116.919 365.901 114.935 363.454 114.935 C 361.005 114.935 359.021 116.919 359.021 119.367 C 359.021 121.815 361.005 123.8 363.454 123.8 C 365.901 123.8 367.886 121.815 367.886 119.367 Z " fill="rgb(48,151,155)"/><path d=" M 98.54 119.367 C 98.54 116.919 96.555 114.935 94.107 114.935 C 91.659 114.935 89.675 116.919 89.675 119.367 C 89.675 121.815 91.659 123.8 94.107 123.8 C 96.555 123.8 98.54 121.815 98.54 119.367 Z " fill="rgb(48,151,155)"/><path d=" M 361.994 119.367 L 406.036 119.367 C 416.803 119.367 425.534 128.097 425.534 138.865 L 425.534 172.456 C 425.534 183.225 416.803 191.954 406.036 191.954 L 45.031 191.954 C 34.263 191.954 25.534 183.225 25.534 172.456 L 25.534 138.865 C 25.534 128.097 34.263 119.367 45.031 119.367 L 97.821 119.367" fill="none" vector-effect="non-scaling-stroke" stroke-width="1" stroke="rgb(48,151,155)" stroke-linejoin="miter" stroke-linecap="square" stroke-miterlimit="3"/><text transform="matrix(1,0,0,1,82.088,33.203)" style="font-family:'Open Sans';font-weight:400;font-size:32px;font-style:normal;fill:#ff9bcd;stroke:none;">Conoce tus mamas</text><text transform="matrix(1,0,0,1,115.183,87.603)" style="font-family:'Open Sans';font-weight:400;font-size:22px;font-style:normal;fill:#30979b;stroke:none;">Aprende a hacerte el </text><text transform="matrix(1,0,0,1,117.414,130.272)" style="font-family:'Open Sans';font-weight:400;font-size:33px;font-style:normal;fill:#ff9bcd;stroke:none;">AUTOEXAMEN</text><text transform="matrix(1,0,0,1,135.895,166.655)" style="font-family:'Open Sans';font-weight:700;font-size:26px;font-style:normal;fill:#ff9bcd;stroke:none;">de las mamas</text><text transform="matrix(1,0,0,1,105.2,228.515)" style="font-family:'Open Sans';font-weight:700;font-size:22px;font-style:normal;fill:#30979b;stroke:none;">en unos simples pasos</text><circle vector-effect="non-scaling-stroke" cx="191.2541263865728" cy="276.23533934855675" r="30.852182161987514" fill="rgb(255,255,255)" stroke-width="1" stroke="rgb(48,151,155)" stroke-linejoin="miter" stroke-linecap="square" stroke-miterlimit="3"/><circle vector-effect="non-scaling-stroke" cx="348.1478178380121" cy="276.23533934855675" r="30.852182161987514" fill="rgb(255,255,255)" stroke-width="1" stroke="rgb(48,151,155)" stroke-linejoin="miter" stroke-linecap="square" stroke-miterlimit="3"/><circle vector-effect="non-scaling-stroke" cx="265.8943908707751" cy="275.8521821619879" r="30.852182161987514" fill="rgb(255,255,255)" stroke-width="1" stroke="rgb(48,151,155)" stroke-linejoin="miter" stroke-linecap="square" stroke-miterlimit="3"/><path d=" M 162.606 271.145 C 165.964 287.742 185.92 288.137 191.847 271.145 C 195.453 284.043 206.554 286.719 213.74 281.634 C 212.321 281.036 212.469 275.665 217.475 277.696 C 218.643 275.873 219.496 273.68 219.903 271.145" fill="none" vector-effect="non-scaling-stroke" stroke-width="1" stroke="rgb(255,155,205)" stroke-linejoin="miter" stroke-linecap="square" stroke-miterlimit="3"/><circle vector-effect="non-scaling-stroke" cx="206.4674437974841" cy="268.3792814098531" r="2.3709066094926357" fill="none" stroke-width="1" stroke="rgb(255,155,205)" stroke-linejoin="miter" stroke-linecap="square" stroke-miterlimit="3"/><circle vector-effect="non-scaling-stroke" cx="176.83111117882618" cy="268.3792814098531" r="2.3709066094926357" fill="none" stroke-width="1" stroke="rgb(255,155,205)" stroke-linejoin="miter" stroke-linecap="square" stroke-miterlimit="3"/><circle vector-effect="non-scaling-stroke" cx="109.8521821619874" cy="276.23533934855675" r="30.852182161987507" fill="rgb(255,255,255)" stroke-width="1" stroke="rgb(48,151,155)" stroke-linejoin="miter" stroke-linecap="square" stroke-miterlimit="3"/><path d=" M 81.227 271.145 C 84.586 287.742 104.541 288.137 110.469 271.145 C 114.074 284.043 125.176 286.719 132.362 281.634 C 138.524 284.136 136.845 277.962 136.096 277.696 C 137.264 275.873 138.117 273.68 138.524 271.145" fill="none" vector-effect="non-scaling-stroke" stroke-width="1" stroke="rgb(255,155,205)" stroke-linejoin="miter" stroke-linecap="square" stroke-miterlimit="3"/><circle vector-effect="non-scaling-stroke" cx="125.08918333717976" cy="268.3792814098531" r="2.3709066094926357" fill="none" stroke-width="1" stroke="rgb(255,155,205)" stroke-linejoin="miter" stroke-linecap="square" stroke-miterlimit="3"/><circle vector-effect="non-scaling-stroke" cx="95.45285071852184" cy="268.3792814098531" r="2.3709066094926357" fill="none" stroke-width="1" stroke="rgb(255,155,205)" stroke-linejoin="miter" stroke-linecap="square" stroke-miterlimit="3"/><path d=" M 237.246 271.275 C 240.604 289.786 260.556 290.227 266.482 271.275 C 270.235 291.428 295.125 289.941 294.532 271.275" fill="none" vector-effect="non-scaling-stroke" stroke-width="1" stroke="rgb(255,155,205)" stroke-linejoin="miter" stroke-linecap="square" stroke-miterlimit="3"/><ellipse vector-effect="non-scaling-stroke" cx="248.11061682491538" cy="279.7209805765861" rx="0.5926189537550783" ry="0.6611181891854585" fill="none" stroke-width="1" stroke="rgb(255,155,205)" stroke-linejoin="miter" stroke-linecap="butt" stroke-miterlimit="3"/><defs><filter id="A2zRA2H0kGmmgr1a5hLlrF3xPOHlErEJ" x="-200%" y="-200%" width="400%" height="400%" filterUnits="objectBoundingBox" color-interpolation-filters="sRGB"><feGaussianBlur xmlns="http://www.w3.org/2000/svg" stdDeviation="0.5581691781690737"/></filter></defs><g filter="url(#A2zRA2H0kGmmgr1a5hLlrF3xPOHlErEJ)"><path d=" M 81.938 274.23 Q 82.502 276.275 85.464 294.945" fill="none" vector-effect="non-scaling-stroke" stroke-width="1" stroke="rgb(255,155,205)" stroke-linejoin="miter" stroke-linecap="square" stroke-miterlimit="3"/></g><defs><filter id="3ngLundpqfweJWaWr1CEApFmaiZTutkm" x="-200%" y="-200%" width="400%" height="400%" filterUnits="objectBoundingBox" color-interpolation-filters="sRGB"><feGaussianBlur xmlns="http://www.w3.org/2000/svg" stdDeviation="0.8157857219394153"/></filter></defs><g filter="url(#3ngLundpqfweJWaWr1CEApFmaiZTutkm)"><path d=" M 93.254 250.053 C 93.254 250.053 93.293 250.005 93.364 249.915 C 93.441 249.83 93.558 249.695 93.745 249.574 C 94.107 249.314 94.758 249.101 95.523 249.108 C 96.289 249.097 97.158 249.251 98.049 249.465 C 98.496 249.572 98.953 249.684 99.41 249.81 C 99.87 249.929 100.338 250.048 100.805 250.168 C 101.754 250.426 102.69 250.731 103.546 251.087 C 104.4 251.442 105.179 251.842 105.796 252.275 C 106.416 252.7 106.869 253.183 107.057 253.596 C 107.254 254.013 107.158 254.28 107.176 254.272 C 107.176 254.272 107.161 254.213 107.134 254.103 C 107.099 253.996 107.025 253.85 106.899 253.693 C 106.645 253.376 106.16 253.042 105.524 252.738 C 104.887 252.433 104.108 252.141 103.258 251.866 C 102.407 251.594 101.488 251.325 100.562 251.086 C 99.631 250.852 98.671 250.565 97.823 250.285 C 96.964 250.016 96.172 249.775 95.484 249.666 C 94.797 249.555 94.219 249.603 93.834 249.747 C 93.641 249.816 93.498 249.895 93.4 249.954 C 93.305 250.019 93.254 250.053 93.254 250.053 Z " fill="rgb(255,155,205)"/></g><defs><filter id="4YfPukXmr0P6oCLOIoFG0S3LMG2Ohh5j" x="-200%" y="-200%" width="400%" height="400%" filterUnits="objectBoundingBox" color-interpolation-filters="sRGB"><feGaussianBlur xmlns="http://www.w3.org/2000/svg" stdDeviation="0.8157857219394153"/></filter></defs><g filter="url(#4YfPukXmr0P6oCLOIoFG0S3LMG2Ohh5j)"><path d=" M 125.089 250.053 C 125.089 250.053 125.038 250.019 124.943 249.954 C 124.846 249.895 124.703 249.816 124.509 249.747 C 124.124 249.603 123.546 249.555 122.859 249.666 C 122.171 249.775 121.38 250.016 120.52 250.284 C 119.672 250.565 118.712 250.852 117.781 251.086 C 116.854 251.325 115.935 251.594 115.085 251.866 C 114.235 252.141 113.457 252.433 112.819 252.738 C 112.183 253.042 111.697 253.376 111.443 253.693 C 111.317 253.85 111.243 253.996 111.208 254.103 C 111.181 254.213 111.167 254.272 111.167 254.272 C 111.184 254.28 111.088 254.013 111.286 253.596 C 111.473 253.183 111.927 252.7 112.547 252.275 C 113.165 251.842 113.942 251.442 114.797 251.087 C 115.653 250.731 116.589 250.426 117.538 250.168 C 118.005 250.048 118.473 249.928 118.933 249.81 C 119.39 249.684 119.848 249.571 120.294 249.465 C 121.186 249.251 122.054 249.097 122.821 249.108 C 123.586 249.101 124.236 249.314 124.598 249.574 C 124.785 249.695 124.903 249.83 124.98 249.915 C 125.051 250.005 125.089 250.053 125.089 250.053 Z " fill="rgb(255,155,205)"/></g><ellipse vector-effect="non-scaling-stroke" cx="281.4948178864511" cy="268.6301934683416" rx="2.3704758150202565" ry="2.644472756741777" fill="none" stroke-width="1" stroke="rgb(255,155,205)" stroke-linejoin="miter" stroke-linecap="butt" stroke-miterlimit="3"/><ellipse vector-effect="non-scaling-stroke" cx="250.87617194243902" cy="279.2802351171288" rx="0.5926189537550783" ry="0.6611181891854585" fill="none" stroke-width="1" stroke="rgb(255,155,205)" stroke-linejoin="miter" stroke-linecap="butt" stroke-miterlimit="3"/><defs><filter id="pfQl6vs8Qa7WaXvu0ZMgomHtdgWQ6s1Q" x="-200%" y="-200%" width="400%" height="400%" filterUnits="objectBoundingBox" color-interpolation-filters="sRGB"><feGaussianBlur xmlns="http://www.w3.org/2000/svg" stdDeviation="0.8157857219394153"/></filter></defs><g filter="url(#pfQl6vs8Qa7WaXvu0ZMgomHtdgWQ6s1Q)"><path d=" M 174.633 250.053 C 174.633 250.053 174.671 250.005 174.742 249.915 C 174.819 249.83 174.936 249.695 175.123 249.574 C 175.486 249.314 176.136 249.101 176.901 249.108 C 177.668 249.097 178.536 249.251 179.428 249.465 C 179.874 249.572 180.331 249.684 180.788 249.81 C 181.249 249.929 181.716 250.048 182.184 250.168 C 183.132 250.426 184.068 250.731 184.924 251.087 C 185.779 251.442 186.557 251.842 187.174 252.275 C 187.795 252.7 188.247 253.183 188.435 253.596 C 188.632 254.013 188.537 254.28 188.554 254.272 C 188.554 254.272 188.539 254.213 188.513 254.103 C 188.478 253.996 188.404 253.85 188.278 253.693 C 188.023 253.376 187.539 253.042 186.902 252.738 C 186.265 252.433 185.486 252.141 184.636 251.866 C 183.785 251.594 182.867 251.325 181.941 251.086 C 181.009 250.852 180.049 250.565 179.202 250.285 C 178.342 250.016 177.55 249.775 176.862 249.666 C 176.176 249.555 175.598 249.603 175.213 249.747 C 175.02 249.816 174.876 249.895 174.778 249.954 C 174.684 250.019 174.633 250.053 174.633 250.053 Z " fill="rgb(255,155,205)"/></g><defs><filter id="o5zpwLGGbBF9WKXrPOqwIqjwMUOhl8Q4" x="-200%" y="-200%" width="400%" height="400%" filterUnits="objectBoundingBox" color-interpolation-filters="sRGB"><feGaussianBlur xmlns="http://www.w3.org/2000/svg" stdDeviation="0.8157857219394153"/></filter></defs><g filter="url(#o5zpwLGGbBF9WKXrPOqwIqjwMUOhl8Q4)"><path d=" M 206.467 250.053 C 206.467 250.053 206.417 250.019 206.322 249.954 C 206.224 249.895 206.081 249.816 205.888 249.747 C 205.502 249.603 204.925 249.555 204.237 249.666 C 203.55 249.775 202.758 250.016 201.899 250.284 C 201.05 250.565 200.09 250.852 199.159 251.086 C 198.232 251.325 197.314 251.594 196.463 251.866 C 195.613 252.141 194.835 252.433 194.197 252.738 C 193.561 253.042 193.076 253.376 192.821 253.693 C 192.696 253.85 192.621 253.996 192.586 254.103 C 192.56 254.213 192.545 254.272 192.545 254.272 C 192.562 254.28 192.467 254.013 192.664 253.596 C 192.852 253.183 193.305 252.7 193.925 252.275 C 194.543 251.842 195.32 251.442 196.176 251.087 C 197.031 250.731 197.967 250.426 198.916 250.168 C 199.384 250.048 199.851 249.928 200.312 249.81 C 200.768 249.684 201.226 249.571 201.673 249.465 C 202.564 249.251 203.433 249.097 204.199 249.108 C 204.965 249.101 205.615 249.314 205.977 249.574 C 206.163 249.695 206.281 249.83 206.358 249.915 C 206.429 250.005 206.467 250.053 206.467 250.053 Z " fill="rgb(255,155,205)"/></g><ellipse vector-effect="non-scaling-stroke" cx="275.37108869764836" cy="279.0598623874007" rx="0.5926189537550499" ry="0.6611181891854585" fill="none" stroke-width="1" stroke="rgb(255,155,205)" stroke-linejoin="miter" stroke-linecap="butt" stroke-miterlimit="3"/><ellipse vector-effect="non-scaling-stroke" cx="277.3464852101654" cy="277.9579987387581" rx="0.5926189537550499" ry="0.6611181891854585" fill="none" stroke-width="1" stroke="rgb(255,155,205)" stroke-linejoin="miter" stroke-linecap="butt" stroke-miterlimit="3"/><defs><filter id="zwEj3K3WSbLaI30c4tbJFdsYRIYktvc7" x="-200%" y="-200%" width="400%" height="400%" filterUnits="objectBoundingBox" color-interpolation-filters="sRGB"><feGaussianBlur xmlns="http://www.w3.org/2000/svg" stdDeviation="0.8157857219394153"/></filter></defs><g filter="url(#zwEj3K3WSbLaI30c4tbJFdsYRIYktvc7)"><path d=" M 249.714 250.053 C 249.714 250.053 249.752 250.005 249.823 249.915 C 249.9 249.83 250.017 249.695 250.204 249.574 C 250.567 249.314 251.217 249.101 251.982 249.108 C 252.749 249.097 253.617 249.251 254.509 249.465 C 254.955 249.572 255.412 249.684 255.869 249.81 C 256.33 249.929 256.797 250.048 257.265 250.168 C 258.213 250.426 259.149 250.731 260.005 251.087 C 260.86 251.442 261.638 251.842 262.255 252.275 C 262.876 252.7 263.328 253.183 263.516 253.596 C 263.713 254.013 263.618 254.28 263.635 254.272 C 263.635 254.272 263.62 254.213 263.594 254.103 C 263.559 253.996 263.485 253.85 263.359 253.693 C 263.104 253.376 262.62 253.042 261.983 252.738 C 261.346 252.433 260.567 252.141 259.717 251.866 C 258.866 251.594 257.948 251.325 257.022 251.086 C 256.09 250.852 255.13 250.565 254.283 250.285 C 253.423 250.016 252.631 249.775 251.943 249.666 C 251.257 249.555 250.679 249.603 250.294 249.747 C 250.101 249.816 249.957 249.895 249.859 249.954 C 249.765 250.019 249.714 250.053 249.714 250.053 Z " fill="rgb(255,155,205)"/></g><defs><filter id="ErPplkA68nFKKOlWSvvmPUmknPXenXOc" x="-200%" y="-200%" width="400%" height="400%" filterUnits="objectBoundingBox" color-interpolation-filters="sRGB"><feGaussianBlur xmlns="http://www.w3.org/2000/svg" stdDeviation="0.8157857219394153"/></filter></defs><g filter="url(#ErPplkA68nFKKOlWSvvmPUmknPXenXOc)"><path d=" M 281.548 250.053 C 281.548 250.053 281.498 250.019 281.403 249.954 C 281.305 249.895 281.162 249.816 280.969 249.747 C 280.583 249.603 280.006 249.555 279.318 249.666 C 278.631 249.775 277.839 250.016 276.98 250.284 C 276.131 250.565 275.171 250.852 274.24 251.086 C 273.313 251.325 272.395 251.594 271.544 251.866 C 270.694 252.141 269.916 252.433 269.278 252.738 C 268.642 253.042 268.157 253.376 267.902 253.693 C 267.777 253.85 267.702 253.996 267.667 254.103 C 267.641 254.213 267.626 254.272 267.626 254.272 C 267.643 254.28 267.548 254.013 267.745 253.596 C 267.933 253.183 268.386 252.7 269.006 252.275 C 269.624 251.842 270.401 251.442 271.257 251.087 C 272.112 250.731 273.048 250.426 273.997 250.168 C 274.465 250.048 274.932 249.928 275.393 249.81 C 275.849 249.684 276.307 249.571 276.754 249.465 C 277.645 249.251 278.514 249.097 279.28 249.108 C 280.046 249.101 280.696 249.314 281.058 249.574 C 281.244 249.695 281.362 249.83 281.439 249.915 C 281.51 250.005 281.548 250.053 281.548 250.053 Z " fill="rgb(255,155,205)"/></g><defs><filter id="CUaibsQoJxNr1626RkR83j2cjjnlwpBy" x="-200%" y="-200%" width="400%" height="400%" filterUnits="objectBoundingBox" color-interpolation-filters="sRGB"><feGaussianBlur xmlns="http://www.w3.org/2000/svg" stdDeviation="0.5581691781690737"/></filter></defs><g filter="url(#CUaibsQoJxNr1626RkR83j2cjjnlwpBy)"><path d=" M 138.524 273.11 Q 137.96 275.155 134.998 293.825" fill="none" vector-effect="non-scaling-stroke" stroke-width="1" stroke="rgb(255,155,205)" stroke-linejoin="miter" stroke-linecap="square" stroke-miterlimit="3"/></g><ellipse vector-effect="non-scaling-stroke" cx="279.7169610251857" cy="282.5858260630562" rx="0.5926189537550499" ry="0.6611181891854585" fill="none" stroke-width="1" stroke="rgb(255,155,205)" stroke-linejoin="miter" stroke-linecap="butt" stroke-miterlimit="3"/><defs><filter id="kZx0V0oTpLdXWNkJlwSX9H4BGUBZMmFX" x="-200%" y="-200%" width="400%" height="400%" filterUnits="objectBoundingBox" color-interpolation-filters="sRGB"><feGaussianBlur xmlns="http://www.w3.org/2000/svg" stdDeviation="0.8157857219394153"/></filter></defs><g filter="url(#kZx0V0oTpLdXWNkJlwSX9H4BGUBZMmFX)"><path d=" M 331.967 250.053 C 331.967 250.053 332.005 250.005 332.077 249.915 C 332.154 249.83 332.271 249.695 332.458 249.574 C 332.82 249.314 333.471 249.101 334.236 249.108 C 335.002 249.097 335.87 249.251 336.762 249.465 C 337.209 249.572 337.666 249.684 338.122 249.81 C 338.583 249.929 339.05 250.048 339.518 250.168 C 340.467 250.426 341.403 250.731 342.258 251.087 C 343.113 251.442 343.892 251.842 344.508 252.275 C 345.129 252.7 345.582 253.183 345.769 253.596 C 345.967 254.013 345.871 254.28 345.888 254.272 C 345.888 254.272 345.874 254.213 345.847 254.103 C 345.812 253.996 345.738 253.85 345.612 253.693 C 345.358 253.376 344.873 253.042 344.237 252.738 C 343.599 252.433 342.82 252.141 341.971 251.866 C 341.12 251.594 340.201 251.325 339.275 251.086 C 338.344 250.852 337.384 250.565 336.536 250.285 C 335.677 250.016 334.885 249.775 334.197 249.666 C 333.51 249.555 332.932 249.603 332.547 249.747 C 332.354 249.816 332.21 249.895 332.113 249.954 C 332.018 250.019 331.967 250.053 331.967 250.053 Z " fill="rgb(255,155,205)"/></g><defs><filter id="V2eMyHxybg1uPSEJOVwhqrrCLxaBAbHq" x="-200%" y="-200%" width="400%" height="400%" filterUnits="objectBoundingBox" color-interpolation-filters="sRGB"><feGaussianBlur xmlns="http://www.w3.org/2000/svg" stdDeviation="0.8157857219394153"/></filter></defs><g filter="url(#V2eMyHxybg1uPSEJOVwhqrrCLxaBAbHq)"><path d=" M 363.802 250.053 C 363.802 250.053 363.751 250.019 363.656 249.954 C 363.559 249.895 363.416 249.816 363.222 249.747 C 362.836 249.603 362.259 249.555 361.572 249.666 C 360.884 249.775 360.092 250.016 359.233 250.284 C 358.384 250.565 357.425 250.852 356.493 251.086 C 355.567 251.325 354.648 251.594 353.798 251.866 C 352.947 252.141 352.17 252.433 351.532 252.738 C 350.895 253.042 350.41 253.376 350.156 253.693 C 350.03 253.85 349.956 253.996 349.921 254.103 C 349.894 254.213 349.879 254.272 349.879 254.272 C 349.897 254.28 349.801 254.013 349.998 253.596 C 350.186 253.183 350.639 252.7 351.259 252.275 C 351.877 251.842 352.655 251.442 353.51 251.087 C 354.366 250.731 355.302 250.426 356.251 250.168 C 356.718 250.048 357.185 249.928 357.646 249.81 C 358.103 249.684 358.561 249.571 359.007 249.465 C 359.899 249.251 360.767 249.097 361.533 249.108 C 362.299 249.101 362.949 249.314 363.311 249.574 C 363.498 249.695 363.615 249.83 363.692 249.915 C 363.764 250.005 363.802 250.053 363.802 250.053 Z " fill="rgb(255,155,205)"/></g><ellipse vector-effect="non-scaling-stroke" cx="245.3450617073916" cy="279.2802351171288" rx="0.5926189537550783" ry="0.6611181891854585" fill="none" stroke-width="1" stroke="rgb(255,155,205)" stroke-linejoin="miter" stroke-linecap="butt" stroke-miterlimit="3"/><ellipse vector-effect="non-scaling-stroke" cx="246.92537891740517" cy="281.9247078738707" rx="0.5926189537550783" ry="0.6611181891854585" fill="none" stroke-width="1" stroke="rgb(255,155,205)" stroke-linejoin="miter" stroke-linecap="butt" stroke-miterlimit="3"/><ellipse vector-effect="non-scaling-stroke" cx="249.6909340349288" cy="283.68768971169885" rx="0.5926189537550783" ry="0.6611181891854585" fill="none" stroke-width="1" stroke="rgb(255,155,205)" stroke-linejoin="miter" stroke-linecap="butt" stroke-miterlimit="3"/><path d=" M 319.059 270.999 C 322.417 287.592 342.368 287.987 348.294 270.999 C 352.048 289.064 376.938 287.731 376.345 270.999" fill="none" vector-effect="non-scaling-stroke" stroke-width="1" stroke="rgb(255,155,205)" stroke-linejoin="miter" stroke-linecap="square" stroke-miterlimit="3"/><circle vector-effect="non-scaling-stroke" cx="333.87409135772936" cy="268.6280928379741" r="2.3704758150202565" fill="none" stroke-width="1" stroke="rgb(255,155,205)" stroke-linejoin="miter" stroke-linecap="butt" stroke-miterlimit="3"/><defs><filter id="2WoKIucrzV54QQZz4sWzb1VsPvlPEL39" x="-200%" y="-200%" width="400%" height="400%" filterUnits="objectBoundingBox" color-interpolation-filters="sRGB"><feGaussianBlur xmlns="http://www.w3.org/2000/svg" stdDeviation="2.6620376189601975"/></filter></defs><g opacity="0.77" filter="url(#2WoKIucrzV54QQZz4sWzb1VsPvlPEL39)"><circle vector-effect="non-scaling-stroke" cx="368.83860962927866" cy="271.14533912092764" r="5.531110235047322" fill="rgb(212,110,150)"/></g><circle vector-effect="non-scaling-stroke" cx="363.30749939423094" cy="268.6280928379741" r="2.3704758150202565" fill="none" stroke-width="1" stroke="rgb(255,155,205)" stroke-linejoin="miter" stroke-linecap="butt" stroke-miterlimit="3"/><ellipse vector-effect="non-scaling-stroke" cx="252.06140984994963" cy="268.6301934683416" rx="2.370475815020285" ry="2.644472756741777" fill="none" stroke-width="1" stroke="rgb(255,155,205)" stroke-linejoin="miter" stroke-linecap="butt" stroke-miterlimit="3"/><defs><filter id="yChZY0sNgI0bkfWP34tQazoKRuqJz9dx" x="-200%" y="-200%" width="400%" height="400%" filterUnits="objectBoundingBox" color-interpolation-filters="sRGB"><feGaussianBlur xmlns="http://www.w3.org/2000/svg" stdDeviation="0.5581691781690737"/></filter></defs><g filter="url(#yChZY0sNgI0bkfWP34tQazoKRuqJz9dx)"><path d=" M 163.316 274.23 Q 163.881 276.275 166.842 294.945" fill="none" vector-effect="non-scaling-stroke" stroke-width="1" stroke="rgb(255,155,205)" stroke-linejoin="miter" stroke-linecap="square" stroke-miterlimit="3"/></g><defs><filter id="2Ikws2MM2UiS5R9LOavEzUcMQmkSXWVz" x="-200%" y="-200%" width="400%" height="400%" filterUnits="objectBoundingBox" color-interpolation-filters="sRGB"><feGaussianBlur xmlns="http://www.w3.org/2000/svg" stdDeviation="0.5581691781690737"/></filter></defs><g filter="url(#2Ikws2MM2UiS5R9LOavEzUcMQmkSXWVz)"><path d=" M 219.903 273.11 Q 219.338 275.155 216.377 293.825" fill="none" vector-effect="non-scaling-stroke" stroke-width="1" stroke="rgb(255,155,205)" stroke-linejoin="miter" stroke-linecap="square" stroke-miterlimit="3"/></g><defs><filter id="ydnHUr8EHpIJb4TDdblAOBWjC0PDmebe" x="-200%" y="-200%" width="400%" height="400%" filterUnits="objectBoundingBox" color-interpolation-filters="sRGB"><feGaussianBlur xmlns="http://www.w3.org/2000/svg" stdDeviation="0.5581691781690737"/></filter></defs><g filter="url(#ydnHUr8EHpIJb4TDdblAOBWjC0PDmebe)"><path d=" M 238.397 274.23 Q 238.962 276.275 241.923 294.945" fill="none" vector-effect="non-scaling-stroke" stroke-width="1" stroke="rgb(255,155,205)" stroke-linejoin="miter" stroke-linecap="square" stroke-miterlimit="3"/></g><defs><filter id="b6JjbkXeHNuHaLXCtb6KbHm3G7w3KXUD" x="-200%" y="-200%" width="400%" height="400%" filterUnits="objectBoundingBox" color-interpolation-filters="sRGB"><feGaussianBlur xmlns="http://www.w3.org/2000/svg" stdDeviation="0.5581691781690737"/></filter></defs><g filter="url(#b6JjbkXeHNuHaLXCtb6KbHm3G7w3KXUD)"><path d=" M 294.984 273.11 Q 294.419 275.155 291.458 293.825" fill="none" vector-effect="non-scaling-stroke" stroke-width="1" stroke="rgb(255,155,205)" stroke-linejoin="miter" stroke-linecap="square" stroke-miterlimit="3"/></g><defs><filter id="fD1OoOrW2h0VbK5LMWcplsjLJis2UzZt" x="-200%" y="-200%" width="400%" height="400%" filterUnits="objectBoundingBox" color-interpolation-filters="sRGB"><feGaussianBlur xmlns="http://www.w3.org/2000/svg" stdDeviation="0.5581691781690737"/></filter></defs><g filter="url(#fD1OoOrW2h0VbK5LMWcplsjLJis2UzZt)"><path d=" M 320.65 274.23 Q 321.215 276.275 324.176 294.945" fill="none" vector-effect="non-scaling-stroke" stroke-width="1" stroke="rgb(255,155,205)" stroke-linejoin="miter" stroke-linecap="square" stroke-miterlimit="3"/></g><defs><filter id="z6w8wxAl2N55gMCAAe2yHt3wazf4X6F2" x="-200%" y="-200%" width="400%" height="400%" filterUnits="objectBoundingBox" color-interpolation-filters="sRGB"><feGaussianBlur xmlns="http://www.w3.org/2000/svg" stdDeviation="0.5581691781690737"/></filter></defs><g filter="url(#z6w8wxAl2N55gMCAAe2yHt3wazf4X6F2)"><path d=" M 377.237 273.11 Q 376.672 275.155 373.711 293.825" fill="none" vector-effect="non-scaling-stroke" stroke-width="1" stroke="rgb(255,155,205)" stroke-linejoin="miter" stroke-linecap="square" stroke-miterlimit="3"/></g></g></svg>