<?xml version="1.0" encoding="UTF-8" standalone="no"?><!-- Generator: Gravit.io --><svg xmlns="http://www.w3.org/2000/svg" xmlns:xlink="http://www.w3.org/1999/xlink" style="isolation:isolate" viewBox="0 0 500 366" width="500pt" height="366pt"><defs><clipPath id="_clipPath_xAWB89SYVb5zBOiLUA7YuxQlZzmyOfmC"><rect width="500" height="366"/></clipPath></defs><g clip-path="url(#_clipPath_xAWB89SYVb5zBOiLUA7YuxQlZzmyOfmC)"><path d=" M 405.055 134.288 C 405.055 131.534 402.822 129.301 400.069 129.301 C 397.314 129.301 395.082 131.534 395.082 134.288 C 395.082 137.042 397.314 139.275 400.069 139.275 C 402.822 139.275 405.055 137.042 405.055 134.288 Z " fill="rgb(255,155,205)"/><path d=" M 107.665 134.288 C 107.665 131.534 105.433 129.301 102.678 129.301 C 99.925 129.301 97.693 131.534 97.693 134.288 C 97.693 137.042 99.925 139.275 102.678 139.275 C 105.433 139.275 107.665 137.042 107.665 134.288 Z " fill="rgb(255,155,205)"/><path d=" M 404.051 134.288 L 453.599 134.288 C 465.712 134.288 475.534 144.109 475.534 156.223 L 475.534 194.013 C 475.534 206.128 465.712 215.948 453.599 215.948 L 47.469 215.948 C 35.354 215.948 25.534 206.128 25.534 194.013 L 25.534 156.223 C 25.534 144.109 35.354 134.288 47.469 134.288 L 106.857 134.288" fill="none" vector-effect="non-scaling-stroke" stroke-width="1" stroke="rgb(255,155,205)" stroke-linejoin="miter" stroke-linecap="square" stroke-miterlimit="3"/><g><path d=" M 422.511 270.053 C 422.511 257.733 412.522 247.745 400.202 247.745 C 387.882 247.745 377.893 257.733 377.893 270.053 C 377.893 282.374 387.882 292.362 400.202 292.362 C 412.522 292.362 422.511 282.374 422.511 270.053 Z " fill="none" vector-effect="non-scaling-stroke" stroke-width="1" stroke="rgb(255,155,205)" stroke-linejoin="miter" stroke-linecap="square" stroke-miterlimit="3"/><path d=" M 417.403 284.26 C 420.593 280.402 422.511 275.451 422.511 270.053 C 422.511 257.733 412.523 247.745 400.202 247.745 C 397.44 247.745 394.795 248.247 392.354 249.164" fill="none" vector-effect="non-scaling-stroke" stroke-width="2" stroke="rgb(255,155,205)" stroke-linejoin="miter" stroke-linecap="square" stroke-miterlimit="3"/><path d=" M 375.365 261.524 C 374.446 264.198 373.949 267.068 373.949 270.054 C 373.949 284.553 385.702 296.308 400.202 296.308 C 401.723 296.308 403.215 296.178 404.665 295.93" fill="none" vector-effect="non-scaling-stroke" stroke-width="1" stroke="rgb(48,151,155)" stroke-linejoin="miter" stroke-linecap="square" stroke-miterlimit="3"/><text transform="matrix(1.942,0,0,1.942,385.907,280.679)" style="font-family:'Open Sans';font-weight:400;font-size:16px;font-style:normal;fill:#30979b;stroke:none;">Sí</text></g><text transform="matrix(1.678,0,0,1.678,177.704,87.652)" style="font-family:'Open Sans';font-weight:400;font-size:15px;font-style:normal;fill:#ff9bcd;stroke:none;">aprende como</text><text transform="matrix(1.125,0,0,1.125,117.195,280.859)" style="font-family:'Open Sans';font-weight:700;font-size:24px;font-style:normal;fill:#ff9bcd;stroke:none;">Este tipo de cáncer </text><text transform="matrix(1.125,0,0,1.125,140.708,317.628)" style="font-family:'Open Sans';font-weight:700;font-size:24px;font-style:normal;fill:#ff9bcd;stroke:none;">se  puede evitar</text><text transform="matrix(1.125,0,0,1.125,81.269,40.883)" style="font-family:'Open Sans';font-weight:400;font-size:34px;font-style:normal;fill:#30979b;stroke:none;">Disminuye el riesgo</text><text transform="matrix(1,0,0,1,168.585,144.534)" style="font-family:'Open Sans';font-weight:400;font-size:36px;font-style:normal;fill:#30979b;stroke:none;">PREVENIR</text><text transform="matrix(1,0,0,1,57.875,189.821)" style="font-family:'Open Sans';font-weight:700;font-size:32px;font-style:normal;fill:#30979b;stroke:none;">el cáncer de cuello uterino</text></g></svg>