<?xml version="1.0" encoding="UTF-8"?>
<svg xmlns="http://www.w3.org/2000/svg" xmlns:xlink="http://www.w3.org/1999/xlink" width="1122pt" height="1122pt" viewBox="0 0 1122 1122" version="1.1">
<g id="surface1">
<rect x="0" y="0" width="1122" height="1122" style="fill:rgb(100%,100%,100%);fill-opacity:1;stroke:none;"/>
<path style=" stroke:none;fill-rule:nonzero;fill:rgb(10.205078%,10.205078%,10.205078%);fill-opacity:1;" d="M 561 943.882813 C 546.265625 979.652344 489.679688 985.289063 454.199219 984.601563 C 419.609375 983.929688 377.222656 969.902344 353.824219 945.9375 C 344.894531 936.792969 338.582031 925.414063 337.863281 913.121094 C 363.511719 938.289063 407.214844 931.574219 432.136719 910.089844 C 443.347656 900.425781 452.441406 888.992188 462.925781 878.703125 C 473.410156 868.410156 485.808594 859.003906 500.765625 855.132813 C 522.679688 849.453125 548.183594 857.675781 561 874.550781 C 573.816406 857.675781 599.320313 849.453125 621.234375 855.132813 C 636.191406 859.003906 648.589844 868.410156 659.074219 878.703125 C 669.558594 888.992188 678.652344 900.425781 689.863281 910.089844 C 714.785156 931.574219 758.488281 938.289063 784.136719 913.121094 C 783.421875 925.414063 777.105469 936.792969 768.175781 945.9375 C 744.777344 969.902344 702.390625 983.929688 667.800781 984.601563 C 632.320313 985.289063 575.734375 979.652344 561 943.882813 "/>
<path style=" stroke:none;fill-rule:nonzero;fill:rgb(10.205078%,10.205078%,10.205078%);fill-opacity:1;" d="M 843.113281 639.96875 C 837.996094 639.96875 833.851563 638.738281 833.851563 637.222656 C 833.851563 635.707031 837.996094 634.476563 843.113281 634.476563 C 848.230469 634.476563 852.378906 635.707031 852.378906 637.222656 C 852.378906 638.738281 848.230469 639.96875 843.113281 639.96875 Z M 815.601563 667.003906 C 814.699219 686.941406 812.394531 745.289063 779.035156 759.671875 C 745.675781 774.050781 691.378906 769.972656 671.734375 764.652344 C 635.351563 754.8125 618.609375 717.21875 613.078125 683.015625 C 612.015625 676.429688 611.082031 669.835938 612.089844 663.183594 C 612.820313 658.4375 614.367188 654.65625 616.632813 651.355469 C 619.164063 647.648438 622.613281 644.546875 626.816406 641.371094 C 639.449219 631.828125 654.945313 627.757813 670.238281 624.6875 C 685.769531 621.566406 701.679688 620.664063 717.5 620.664063 C 801.210938 620.664063 816.503906 647.054688 815.601563 667.003906 Z M 508.921875 683.015625 C 503.382813 717.21875 486.640625 754.8125 450.265625 764.652344 C 430.621094 769.972656 376.324219 774.050781 342.964844 759.671875 C 309.605469 745.289063 307.300781 686.941406 306.398438 667.003906 C 305.496094 647.054688 320.789063 620.664063 404.5 620.664063 C 420.320313 620.664063 436.230469 621.566406 451.761719 624.6875 C 467.054688 627.757813 482.550781 631.828125 495.183594 641.371094 C 499.386719 644.546875 502.835938 647.648438 505.367188 651.355469 C 507.632813 654.65625 509.179688 658.4375 509.898438 663.183594 C 510.917969 669.835938 509.984375 676.429688 508.921875 683.015625 Z M 278.886719 639.96875 C 273.769531 639.96875 269.621094 638.738281 269.621094 637.222656 C 269.621094 635.707031 273.769531 634.476563 278.886719 634.476563 C 284.003906 634.476563 288.140625 635.707031 288.140625 637.222656 C 288.140625 638.738281 284.003906 639.96875 278.886719 639.96875 Z M 860.269531 629.679688 C 859.875 627.605469 845.734375 623.273438 843.515625 622.410156 C 837.863281 620.191406 832.140625 618.167969 826.351563 616.34375 C 818.757813 613.941406 811.089844 611.890625 803.320313 610.171875 C 776.980469 604.34375 749.957031 602.15625 722.980469 602.097656 C 701.445313 602.058594 638.105469 606.214844 610.613281 620.671875 L 610.613281 620.664063 C 590.136719 630.226563 574.96875 634.226563 561 634.226563 C 547.03125 634.226563 531.863281 630.226563 511.386719 620.664063 L 511.386719 620.671875 C 483.882813 606.214844 420.554688 602.058594 399.019531 602.097656 C 372.042969 602.15625 345.011719 604.34375 318.679688 610.171875 C 310.902344 611.890625 303.242188 613.941406 295.648438 616.34375 C 289.859375 618.167969 284.128906 620.191406 278.484375 622.410156 C 276.265625 623.273438 262.125 627.605469 261.730469 629.679688 C 260.683594 635.234375 261.070313 640.832031 261.070313 648.332031 C 261.070313 647.4375 271.070313 650.480469 271.964844 650.933594 C 275.179688 652.601563 277.867188 655.097656 279.847656 658.132813 C 284.839844 665.8125 283.792969 675.84375 284.972656 684.542969 C 286.277344 694.160156 286.433594 703.925781 288.5625 713.53125 C 292.539063 731.523438 300.359375 750.042969 312.167969 764.335938 C 323.324219 777.835938 343.65625 782.960938 359.832031 787.28125 C 380.695313 792.859375 402.734375 792.136719 424.144531 789.402344 C 446.003906 786.617188 468.351563 781.441406 485.976563 768.203125 C 501.480469 756.570313 512.105469 739.589844 520.585938 722.144531 C 523.65625 715.816406 526.429688 709.164063 528.734375 702.320313 C 528.742188 702.300781 528.742188 702.292969 528.753906 702.28125 C 529.273438 700.71875 529.78125 699.144531 530.25 697.570313 C 532.488281 691.253906 535.769531 684.761719 540.609375 679.367188 C 546.0625 673.300781 553.53125 670.257813 561 670.257813 C 568.46875 670.257813 575.9375 673.300781 581.382813 679.367188 C 586.230469 684.773438 589.511719 691.269531 591.75 697.589844 C 592.21875 699.152344 592.71875 700.707031 593.238281 702.253906 C 593.246094 702.273438 593.257813 702.292969 593.265625 702.320313 C 595.570313 709.164063 598.34375 715.816406 601.414063 722.144531 C 609.894531 739.589844 620.519531 756.570313 636.023438 768.203125 C 653.648438 781.441406 675.996094 786.617188 697.855469 789.402344 C 719.265625 792.136719 741.304688 792.859375 762.15625 787.28125 C 778.34375 782.960938 798.675781 777.835938 809.832031 764.335938 C 821.640625 750.042969 829.464844 731.523438 833.4375 713.53125 C 835.566406 703.925781 835.722656 694.160156 837.027344 684.542969 C 838.199219 675.84375 837.160156 665.8125 842.152344 658.132813 C 844.132813 655.097656 846.820313 652.601563 850.035156 650.933594 C 850.917969 650.480469 860.929688 647.4375 860.929688 648.332031 C 860.929688 640.832031 861.316406 635.234375 860.269531 629.679688 "/>
<path style=" stroke:none;fill-rule:nonzero;fill:rgb(100%,100%,100%);fill-opacity:1;" d="M 843.113281 634.480469 C 838 634.480469 833.851563 635.707031 833.851563 637.222656 C 833.851563 638.738281 838 639.96875 843.113281 639.96875 C 848.230469 639.96875 852.375 638.738281 852.375 637.222656 C 852.375 635.707031 848.230469 634.480469 843.113281 634.480469 "/>
<path style=" stroke:none;fill-rule:nonzero;fill:rgb(100%,100%,100%);fill-opacity:1;" d="M 278.882813 634.480469 C 273.769531 634.480469 269.625 635.707031 269.625 637.222656 C 269.625 638.738281 273.769531 639.96875 278.882813 639.96875 C 284 639.96875 288.144531 638.738281 288.144531 637.222656 C 288.144531 635.707031 284 634.480469 278.882813 634.480469 "/>
<path style=" stroke:none;fill-rule:nonzero;fill:rgb(10.205078%,10.205078%,10.205078%);fill-opacity:1;" d="M 365.507813 372.585938 L 756.492188 372.585938 L 756.480469 373.007813 C 759.429688 294.125 766.445313 215.476563 777.515625 137.699219 C 779.832031 121.421875 771.09375 105.589844 756.054688 98.921875 C 694.035156 71.449219 427.964844 71.449219 365.945313 98.921875 C 350.90625 105.589844 342.167969 121.421875 344.484375 137.699219 C 355.546875 215.429688 362.5625 294.03125 365.511719 372.863281 L 365.507813 372.675781 L 365.507813 372.585938 "/>
<path style=" stroke:none;fill-rule:nonzero;fill:rgb(96.875%,72.068787%,16.479492%);fill-opacity:1;" d="M 420.121094 439.144531 C 463.984375 444.023438 508.769531 444.984375 552.492188 445 L 555.632813 445 C 558.136719 444.996094 561 444.992188 561 444.992188 C 561 444.992188 563.863281 444.996094 566.367188 445 L 569.507813 445 C 613.230469 444.984375 658.015625 444.023438 701.878906 439.144531 C 718.519531 437.289063 737.140625 435.683594 755.195313 431.996094 L 756.480469 373.007813 L 756.492188 372.585938 L 365.507813 372.585938 L 365.507813 372.675781 L 365.511719 372.863281 L 366.804688 431.996094 C 384.859375 435.683594 403.476563 437.289063 420.121094 439.144531 "/>
<path style=" stroke:none;fill-rule:nonzero;fill:rgb(10.205078%,10.205078%,10.205078%);fill-opacity:1;" d="M 843.566406 367.820313 C 830.074219 371.894531 827.601563 389.898438 819.363281 399.449219 C 803.269531 418.101563 779.75 426.976563 755.195313 431.996094 C 737.140625 435.683594 718.519531 437.289063 701.878906 439.144531 C 658.015625 444.023438 613.230469 444.984375 569.507813 445 C 569.214844 445 568.921875 445 568.632813 445 C 567.996094 445 567.199219 445 566.367188 445 C 563.863281 444.996094 561 444.992188 561 444.992188 C 561 444.992188 558.136719 444.996094 555.632813 445 C 554.800781 445 554.003906 445 553.367188 445 C 553.078125 445 552.785156 445 552.492188 445 C 508.769531 444.984375 463.984375 444.023438 420.121094 439.144531 C 403.476563 437.289063 384.859375 435.683594 366.804688 431.996094 C 342.25 426.976563 318.730469 418.101563 302.636719 399.449219 C 294.394531 389.898438 291.925781 371.894531 278.433594 367.820313 C 258.117188 361.6875 251.910156 389.34375 252.492188 402.125 C 253.683594 428.269531 275.507813 452.414063 295.582031 467.011719 C 321.207031 485.640625 352.785156 496.078125 383.230469 503.601563 C 438.644531 517.296875 496.480469 520.667969 553.367188 520.667969 C 555.84375 520.667969 560.804688 520.636719 560.804688 520.636719 C 560.804688 520.636719 566.15625 520.667969 568.632813 520.667969 C 625.519531 520.667969 683.355469 517.296875 738.769531 503.601563 C 769.214844 496.078125 800.792969 485.640625 826.417969 467.011719 C 846.492188 452.414063 868.316406 428.269531 869.507813 402.125 C 870.089844 389.34375 863.882813 361.6875 843.566406 367.820313 "/>
</g>
</svg>
