<?xml version="1.0" encoding="UTF-8" standalone="no"?><!-- Generator: Gravit.io --><svg xmlns="http://www.w3.org/2000/svg" xmlns:xlink="http://www.w3.org/1999/xlink" style="isolation:isolate" viewBox="0 0 520 520" width="520pt" height="520pt"><defs><clipPath id="_clipPath_7pAmmhE8EOjwQiUgnRzJdJwuUe97x7VB"><rect width="520" height="520"/></clipPath></defs><g clip-path="url(#_clipPath_7pAmmhE8EOjwQiUgnRzJdJwuUe97x7VB)"><path d=" M 390.67 490.787 C 390.67 506.92 331.812 520 259.209 520 C 186.605 520 127.749 506.92 127.749 490.787 C 127.749 474.653 186.605 461.573 259.209 461.573 C 331.812 461.573 390.67 474.653 390.67 490.787 Z " fill="rgb(209,209,209)"/><path d=" M 111.089 224.21 C 111.089 224.21 120.509 192.418 127.574 182.998 C 134.638 173.577 140.134 186.924 137.778 195.166 C 135.424 203.408 116.583 222.64 111.089 224.21 Z " fill="rgb(69,61,75)"/><path d=" M 139.741 170.438 C 139.741 170.438 133.461 164.55 130.714 160.233 C 127.966 155.917 118.546 145.318 109.126 147.281 C 99.707 149.242 98.137 161.411 101.669 169.26 C 105.201 177.11 115.014 176.717 115.014 176.717 L 133.854 204.193 L 139.741 170.438 Z " fill="rgb(244,143,117)"/><path d=" M 417.238 180.252 C 417.238 180.252 405.346 144.078 397.026 135.744 C 388.706 127.412 385.142 141.398 388.634 149.227 C 392.124 157.056 411.577 179.469 417.238 180.252 Z " fill="rgb(69,61,75)"/><path d=" M 383.212 125.021 C 383.212 125.021 388.601 118.309 390.714 113.647 C 392.827 108.986 400.664 97.169 410.266 97.786 C 419.869 98.405 423.133 110.231 420.74 118.5 C 418.348 126.768 408.577 127.761 408.577 127.761 L 393.79 157.613 L 383.212 125.021 Z " fill="rgb(244,143,117)"/><path d=" M 401.997 95.394 C 401.997 95.394 416.436 85.413 419.939 79.366 C 423.441 73.319 428.1 78.207 428.873 83.647 C 429.646 89.088 421.26 94.243 415.816 97.792 C 410.375 101.34 407.82 102.892 407.82 102.892 L 401.997 95.394 Z " fill="rgb(243,132,91)"/><path d=" M 412.151 99.897 C 412.151 99.897 427.64 97.301 434.026 94.808 C 440.412 92.315 441.244 92.594 441.74 96.092 C 442.237 99.587 443.678 101.366 440.013 103.471 C 436.35 105.578 413.255 107.67 411.59 107.115 C 409.927 106.558 409.983 104.17 412.151 99.897 Z " fill="rgb(243,132,91)"/><path d=" M 429.796 109.682 C 429.796 109.682 430.4 116.732 426.625 118.06 C 422.849 119.39 412.083 116.163 411.863 114.607 C 411.643 113.053 411.534 109.501 413.088 109.278 C 414.642 109.058 427.243 108.457 429.796 109.682 Z " fill="rgb(243,132,91)"/><path d=" M 412.139 116.551 C 412.139 116.551 424.238 118.004 425.237 119.447 C 426.234 120.89 426.174 126.053 422.345 126.994 C 418.514 127.934 410.468 124.32 409.748 122.045 C 409.027 119.768 410.141 116.438 412.139 116.551 Z " fill="rgb(243,132,91)"/><path d=" M 391.546 116.701 C 391.546 116.701 392.331 105.489 394.335 97.276 C 396.341 89.061 403.352 91.162 412.157 94.347 C 425.529 99.186 419.363 106.01 417.086 106.729 C 414.811 107.45 404.6 102.557 404.6 102.557 C 404.6 102.557 405.198 117.933 400.255 122.203 C 400.255 122.203 391.893 128.02 391.546 116.701 Z " fill="rgb(244,143,117)"/><path d=" M 202.295 422.004 L 202.719 462.689 C 202.719 462.689 187.886 475.403 184.92 483.879 C 181.953 492.354 187.463 491.507 195.939 490.235 C 204.415 488.964 223.485 480.912 226.028 472.437 C 228.571 463.961 227.3 421.157 227.3 421.157 L 202.295 422.004 Z " fill="rgb(244,143,117)"/><path d=" M 195.939 490.235 C 204.415 488.964 223.485 480.912 226.028 472.437 C 226.619 470.466 227.002 466.631 227.244 461.92 C 224.369 462.005 219.248 463.536 219.248 463.536 C 219.248 463.536 218.824 455.06 209.924 453.366 C 204.495 452.332 203.015 456.025 202.682 459.067 L 202.719 462.689 C 202.719 462.689 187.886 475.403 184.92 483.879 C 181.953 492.354 187.463 491.507 195.939 490.235 Z " fill="rgb(254,200,54)"/><path d=" M 222.638 473.706 C 217.128 479.218 203.143 485.148 195.939 487.267 C 191.392 488.607 187.187 486.401 184.701 484.589 C 182.311 492.278 187.717 491.47 195.939 490.235 C 204.415 488.964 223.485 480.912 226.028 472.437 C 226.236 471.741 226.418 470.801 226.578 469.683 C 225.486 470.824 224.193 472.152 222.638 473.706 Z " fill="rgb(76,69,84)"/><path d=" M 323.854 422.004 L 323.432 462.689 C 323.432 462.689 338.264 475.403 341.231 483.879 C 344.197 492.354 338.687 491.507 330.211 490.235 C 321.736 488.964 302.665 480.912 300.121 472.437 C 297.58 463.961 298.85 421.157 298.85 421.157 L 323.854 422.004 Z " fill="rgb(244,143,117)"/><path d=" M 330.211 490.235 C 321.736 488.964 302.665 480.912 300.121 472.437 C 299.531 470.466 299.148 466.631 298.906 461.92 C 301.781 462.005 306.903 463.536 306.903 463.536 C 306.903 463.536 307.327 455.06 316.226 453.366 C 321.656 452.332 323.136 456.025 323.469 459.067 L 323.432 462.689 C 323.432 462.689 338.264 475.403 341.231 483.879 C 344.197 492.354 338.687 491.507 330.211 490.235 Z " fill="rgb(254,200,54)"/><path d=" M 303.512 473.706 C 309.022 479.218 323.007 485.148 330.211 487.267 C 334.759 488.607 338.964 486.401 341.451 484.589 C 343.84 492.278 338.434 491.47 330.211 490.235 C 321.736 488.964 302.665 480.912 300.121 472.437 C 299.913 471.741 299.732 470.801 299.572 469.683 C 300.665 470.824 301.958 472.152 303.512 473.706 Z " fill="rgb(76,69,84)"/><path d=" M 197.831 216.753 C 197.831 216.753 180.168 252.471 172.711 301.924 C 165.253 351.38 163.683 422.815 163.683 422.815 C 163.683 422.815 155.049 425.954 226.875 429.88 C 298.704 433.805 376.417 421.636 376.417 421.636 C 376.417 421.636 370.138 318.018 361.109 272.488 C 352.082 226.958 343.84 206.941 343.84 206.941 L 197.831 216.753 Z " fill="rgb(76,69,84)"/><path d=" M 229.624 97.433 C 229.624 97.433 201.363 117.45 190.766 131.189 C 180.168 144.925 158.189 186.531 158.189 186.531 L 138.171 169.26 C 138.171 169.26 134.638 188.492 127.574 199.875 C 120.509 211.259 111.089 224.21 111.089 224.21 C 111.089 224.21 164.469 247.76 172.318 245.797 C 180.168 243.836 199.401 191.633 199.401 191.633 C 199.401 191.633 196.653 214.79 197.831 216.753 C 199.009 218.716 233.156 228.136 259.452 227.743 C 285.75 227.349 334.813 219.107 342.664 211.259 C 345.665 208.256 340.307 188.492 340.307 188.492 C 340.307 188.492 356.009 213.613 361.896 214.005 C 367.784 214.398 417.238 180.252 417.238 180.252 C 417.238 180.252 394.08 153.56 390.94 143.748 C 387.801 133.937 385.053 119.414 385.053 119.414 L 363.073 153.954 C 363.073 153.954 320.29 110.387 309.3 99.397 C 298.31 88.406 255.136 86.052 229.624 97.433 Z " fill="rgb(86,78,92)"/><path d=" M 219.957 106.589 C 219.961 106.614 221.692 123.143 228.641 140.036 C 232.118 148.485 236.899 157.027 243.449 163.641 C 249.995 170.255 258.335 174.935 268.844 175.585 C 269.471 175.624 270.084 175.644 270.686 175.644 C 280.868 175.659 287.308 170.07 291.058 161.911 C 294.826 153.751 296.041 143.008 296.043 132.396 C 296.043 112.071 291.55 92.222 291.546 92.202 L 290.598 92.416 C 290.598 92.42 290.874 93.647 291.295 95.817 C 292.553 102.326 295.071 117.256 295.069 132.396 C 295.073 142.932 293.844 153.568 290.173 161.502 C 286.483 169.437 280.486 174.652 270.686 174.67 C 270.106 174.67 269.512 174.65 268.904 174.613 C 258.658 173.975 250.567 169.439 244.141 162.957 C 234.505 153.233 228.68 139.109 225.289 127.416 C 223.592 121.57 222.5 116.333 221.833 112.558 C 221.5 110.673 221.273 109.152 221.129 108.104 C 220.985 107.056 220.926 106.488 220.926 106.488 L 219.957 106.589 Z " fill="rgb(238,70,70)"/><path d=" M 210.81 110.013 C 210.814 110.036 212.545 128.18 219.489 146.72 C 222.964 155.991 227.74 165.364 234.287 172.625 C 240.829 179.882 249.172 185.027 259.694 185.742 C 260.323 185.783 260.937 185.804 261.538 185.804 C 266.631 185.808 270.809 184.285 274.159 181.629 C 279.185 177.642 282.354 171.174 284.282 163.543 C 286.21 155.911 286.898 147.096 286.898 138.363 C 286.898 116.056 282.404 94.263 282.403 94.243 L 281.448 94.44 C 281.45 94.444 281.727 95.794 282.147 98.177 C 283.406 105.327 285.924 121.727 285.924 138.363 C 285.926 149.94 284.699 161.631 281.02 170.36 C 279.181 174.726 276.739 178.345 273.553 180.865 C 270.367 183.385 266.438 184.828 261.538 184.83 C 260.96 184.83 260.368 184.811 259.76 184.77 C 249.529 184.069 241.441 179.097 235.01 171.972 C 225.368 161.288 219.538 145.766 216.145 132.918 C 214.448 126.493 213.355 120.74 212.688 116.594 C 212.355 114.521 212.127 112.85 211.984 111.699 C 211.84 110.548 211.78 109.921 211.78 109.919 L 210.81 110.013 Z " fill="rgb(0,181,214)"/><path d=" M 223.475 101.823 L 263.529 174.641 C 263.624 174.814 263.813 174.911 264.01 174.89 C 264.205 174.869 264.368 174.732 264.425 174.543 L 287.998 93.416 L 287.061 93.143 L 263.817 173.143 L 224.328 101.354 L 223.475 101.823 Z " fill="rgb(254,200,54)"/><path d=" M 275.226 27.582 C 275.226 27.582 270.643 9.016 253.173 7.943 C 231.964 6.642 219.811 18.542 217.956 37.604 C 215.834 59.401 220.819 94.874 225.114 102.988 C 229.41 111.101 245.159 113.487 257.567 113.487 C 269.975 113.487 286.679 100.602 288.588 94.874 C 290.499 89.147 279.997 39.99 275.226 27.582 Z " fill="rgb(244,143,117)"/><path d=" M 245.976 51.446 C 245.976 51.446 247.407 69.102 248.839 70.534 C 250.27 71.967 256.475 71.011 256.952 68.625 C 257.429 66.239 253.611 50.967 253.611 50.967 C 253.611 50.967 248.361 50.967 245.976 51.446 Z " fill="rgb(230,117,101)"/><path d=" M 236.418 79.391 C 236.47 79.424 241.75 82.932 250.777 82.932 C 252.281 82.932 253.888 82.834 255.592 82.609 C 267.58 81.019 270.489 73.358 270.507 73.266 L 269.593 72.929 L 269.568 72.993 C 269.249 73.724 266.306 80.188 255.463 81.643 C 253.803 81.865 252.239 81.958 250.777 81.958 C 246.391 81.958 242.926 81.107 240.56 80.258 C 239.378 79.833 238.471 79.409 237.863 79.093 C 237.559 78.935 237.329 78.805 237.177 78.715 L 236.959 78.581 L 236.418 79.391 Z " fill="rgb(136,92,99)"/><path d=" M 248.463 82.519 C 248.463 82.519 251.996 90.368 257.098 89.976 C 262.2 89.583 262.985 79.771 262.985 79.771 C 262.985 79.771 253.958 82.91 248.463 82.519 Z " fill="rgb(86,78,92)"/><path d=" M 244.146 46.801 C 244.146 46.801 241.006 40.128 233.548 40.128 C 226.091 40.128 222.558 47.979 222.558 47.979 C 222.558 47.979 228.446 45.622 233.156 46.016 C 237.866 46.409 244.146 46.801 244.146 46.801 Z " fill="rgb(86,78,92)"/><path d=" M 253.958 43.661 C 253.958 43.661 257.491 32.278 262.985 31.886 C 268.481 31.493 272.799 37.774 272.799 37.774 C 272.799 37.774 259.452 38.559 253.958 43.661 Z " fill="rgb(86,78,92)"/><path d=" M 275.226 27.582 C 275.226 27.582 270.643 9.016 253.173 7.943 C 231.964 6.642 219.811 18.542 217.956 37.604 C 217.874 38.438 217.806 39.301 217.745 40.171 C 223.289 35.659 233.72 28.955 248.463 27.177 C 259.131 25.888 268.82 27.796 276.137 30.182 C 275.816 29.199 275.51 28.32 275.226 27.582 Z " fill="rgb(254,254,254)"/><path d=" M 242.183 1.271 C 242.183 1.271 222.165 4.412 212.746 18.933 C 206.762 28.159 196.653 59.754 189.981 80.556 C 183.308 101.358 173.496 135.113 173.496 135.113 C 173.496 135.113 187.234 135.506 200.579 136.289 C 213.924 137.076 231.194 135.506 231.194 135.506 C 231.194 135.506 217.456 56.221 222.558 37.38 C 227.661 18.542 251.211 14.224 259.452 17.757 C 267.695 21.288 281.826 77.808 283.789 86.443 C 285.75 95.079 290.853 126.086 290.853 126.086 C 290.853 126.086 301.45 123.338 318.327 118.629 C 335.205 113.918 346.195 107.639 346.195 107.639 C 346.195 107.639 325 58.184 301.058 25.999 C 277.115 -6.187 247.286 0.092 242.183 1.271 Z " fill="rgb(76,69,84)"/><path d=" M 278.49 182.606 L 268.873 182.606 L 268.873 175.098 L 261.416 175.098 L 261.416 182.606 L 251.799 182.606 L 251.799 190.063 L 261.416 190.063 L 261.416 207.775 L 268.873 207.775 L 268.873 190.063 L 278.49 190.063 L 278.49 182.606 Z " fill="rgb(254,200,54)"/><path d=" M 116.976 143.748 C 116.976 143.748 101.277 135.898 96.958 130.404 C 92.641 124.908 88.716 130.404 88.716 135.898 C 88.716 141.394 97.744 145.318 103.631 148.064 C 109.519 150.814 112.266 151.99 112.266 151.99 L 116.976 143.748 Z " fill="rgb(243,132,91)"/><path d=" M 107.556 149.636 C 107.556 149.636 91.857 149.242 85.184 147.673 C 78.512 146.103 77.726 146.496 77.726 150.027 C 77.726 153.56 76.549 155.521 80.474 157.093 C 84.399 158.663 107.556 157.485 109.126 156.7 C 110.696 155.917 110.304 153.56 107.556 149.636 Z " fill="rgb(243,132,91)"/><path d=" M 91.464 161.802 C 91.464 161.802 91.857 168.868 95.781 169.653 C 99.707 170.438 109.911 165.729 109.911 164.157 C 109.911 162.587 109.519 159.056 107.949 159.056 C 106.379 159.056 93.819 160.233 91.464 161.802 Z " fill="rgb(243,132,91)"/><path d=" M 109.911 166.12 C 109.911 166.12 98.137 169.26 97.351 170.831 C 96.567 172.401 97.351 177.504 101.277 177.895 C 105.201 178.288 112.659 173.577 113.051 171.223 C 113.443 168.868 111.874 165.729 109.911 166.12 Z " fill="rgb(243,132,91)"/><path d=" M 130.321 163.374 C 130.321 163.374 127.966 152.382 124.826 144.533 C 121.686 136.683 115.04 139.748 106.771 144.142 C 94.211 150.814 101.277 156.7 103.631 157.093 C 105.986 157.485 115.406 151.206 115.406 151.206 C 115.406 151.206 116.976 166.513 122.472 170.046" fill="rgb(244,143,117)"/><path d=" M 245.976 51.446 C 245.976 51.446 242.183 50.334 232.763 51.903 C 223.344 53.473 214.316 57.399 213.924 58.969 C 213.531 60.539 216.278 61.324 216.278 61.324 C 216.278 61.324 217.456 71.92 225.305 74.668 C 233.156 77.416 241.006 73.49 243.36 69.957 C 245.716 66.426 245.976 51.446 245.976 51.446 Z " fill="rgb(0,122,139)"/><path d=" M 253.8 50.382 C 253.8 50.382 256.911 47.946 266.242 45.915 C 275.572 43.885 285.413 44.187 286.358 45.5 C 287.305 46.812 285.043 48.559 285.043 48.559 C 285.043 48.559 287.875 58.839 281.602 64.3 C 275.327 69.759 266.582 69.02 263.085 66.611 C 259.589 64.202 253.8 50.382 253.8 50.382 Z " fill="rgb(0,122,139)"/><path d=" M 413.567 106.762 L 404.908 104.904 C 404.723 104.865 404.53 104.937 404.415 105.089 L 404.376 105.611 L 404.427 105.711 C 404.669 106.199 405.677 108.443 405.675 111.341 C 405.666 114.471 404.542 118.348 399.963 121.815 L 400.549 122.592 C 405.366 118.968 406.659 114.708 406.649 111.341 C 406.645 107.771 405.255 105.191 405.233 105.15 L 404.805 105.381 L 404.704 105.857 L 413.364 107.713 L 413.567 106.762 Z " fill="rgb(136,92,99)"/><path d=" M 109.227 157.177 L 117.9 155.342 L 117.8 154.867 L 117.403 154.583 C 117.386 154.624 114.171 159.074 114.157 164.063 C 114.154 166.058 114.69 168.153 116.182 170.015 C 118.3 172.674 120.416 173.532 122.157 173.527 C 124.593 173.515 126.142 171.945 126.184 171.912 L 125.496 171.223 L 125.446 171.269 C 125.178 171.515 123.894 172.561 122.157 172.553 C 120.741 172.547 118.949 171.902 116.943 169.406 C 115.607 167.735 115.133 165.89 115.13 164.063 C 115.129 161.781 115.891 159.539 116.663 157.878 C 117.049 157.046 117.435 156.359 117.723 155.884 C 117.867 155.646 117.987 155.459 118.07 155.334 L 118.196 155.149 L 118.207 154.6 C 118.097 154.431 117.896 154.349 117.699 154.39 L 109.025 156.223 L 109.227 157.177 Z " fill="rgb(136,92,99)"/></g></svg>